# xmcd
# 
# Track frame offsets:
#     150
#     17962
#     34132
#     50428
#     68576
#     85426
#     104505
#     121572
#     140362
#     159372
#     178937
#     196446
#     217954
# 
# Disc length: 3149
# 
# Revision: 3
# Processed by: cddbd v1.5.2PL0 Copyright (c) Steve Scherf et al.
# Submitted via: fre:ac v1.0.27
# 
DISCID=b10c4b0d
DTITLE=Kate Voegele - Don't Look Away
DYEAR=2007
DGENRE=Folk-influenced American Rock
TTITLE0=Chicago
TTITLE1=I Get It
TTITLE2=Only Fooling Myself
TTITLE3=Top Of The World
TTITLE4=One Way Or Another
TTITLE5=It's Only Life
TTITLE6=Might Have Been
TTITLE7=Facing Up
TTITLE8=No Good
TTITLE9=Devil In Me
TTITLE10=I Won't Disagree
TTITLE11=Wish You Were
TTITLE12=Kindly Unspoken
EXTD=
EXTT0=
EXTT1=
EXTT2=
EXTT3=
EXTT4=
EXTT5=
EXTT6=
EXTT7=
EXTT8=
EXTT9=
EXTT10=
EXTT11=
EXTT12=
PLAYORDER=
